<svg xmlns="http://www.w3.org/2000/svg" xml:space="preserve" style="enable-background:new 0 0 602.95 602.95" viewBox="0 0 602.95 602.95" width="30px"><path d="M571.835 471.399 452.014 351.578l-5.022 5.022c-8.317 8.317-21.817 8.317-30.134 0s-8.317-21.817 0-30.134l5.022-5.022-30.134-30.134-100.445 100.446 30.134 30.134 5.022-5.022c8.317-8.317 21.817-8.317 30.134 0s8.317 21.817 0 30.134l-5.022 5.022L471.39 571.845a71.136 71.136 0 0 0 11.963 9.552l98.035-98.035a71.192 71.192 0 0 0-9.553-11.963z" style="fill:#88b337"/><path d="m581.387 483.362-98.035 98.035c32.966 21.174 76.861 11.622 98.035-21.345 15.007-23.353 15.007-53.326 0-76.69z" style="fill:#dadddf"/><path d="m130.589 90.421-10.045-40.179-70.311-40.178-40.179 40.178 40.179 70.312 40.178 10.045 231.024 231.024 40.178-40.178z" style="fill:#cfd2d4"/><path d="m589.242 93.816-66.917 66.917-60.267-20.089-20.089-60.267 66.917-66.917C450.005-1.567 390.099 33.99 375.073 92.871a110.112 110.112 0 0 0 0 54.401l-227.81 227.81c-59.484-15.097-119.942 20.873-135.039 80.356C-2.873 514.922 33.097 575.38 92.58 590.477c59.484 15.097 119.942-20.872 135.039-80.356a111.234 111.234 0 0 0 0-54.682l227.81-227.81c58.921 14.986 118.827-20.631 133.813-79.553a110.02 110.02 0 0 0 0-54.26zM150.678 532.38H90.411l-30.134-50.223 30.134-50.223h60.267l30.134 50.223-30.134 50.223z" style="fill:#dadddf"/><path d="M592.637 521.622a70.869 70.869 0 0 0-11.25-38.26l-28.928 28.928v73.235c24.549-11.822 40.168-36.652 40.178-63.903z" style="fill:#cfd2d4"/><path d="m1.336 55.265 40.178 70.312a10.02 10.02 0 0 0 6.278 4.761l37.486 9.372 128.57 128.57 14.203-14.203-130.579-130.58a10.027 10.027 0 0 0-4.661-2.642l-36.02-9.04L22.58 51.92l29.33-29.33 59.926 34.242 9.04 36.02a10.059 10.059 0 0 0 2.642 4.671l130.579 130.579 14.203-14.203-128.57-128.57-9.372-37.466a10.016 10.016 0 0 0-4.761-6.288L55.285 1.396a10.047 10.047 0 0 0-12.053 1.617L3.053 43.191a10.033 10.033 0 0 0-1.717 12.074zM183.753 404.74 404.73 183.763l14.205 14.205-220.977 220.977zM159.286 426.761a10.045 10.045 0 0 0-8.608-4.872H90.411c-3.526 0-6.79 1.848-8.608 4.872l-30.134 50.223a10.066 10.066 0 0 0 0 10.346l30.134 50.223a10.045 10.045 0 0 0 8.608 4.872h60.267c3.526 0 6.79-1.848 8.608-4.872l30.134-50.223a10.066 10.066 0 0 0 0-10.346l-30.134-50.223zm-14.293 95.574H96.096l-24.107-40.178 24.107-40.178h48.897l24.107 40.178-24.107 40.178z"/><path d="M482.147 241.088c66.344.221 120.303-53.377 120.524-119.721a120.383 120.383 0 0 0-3.686-29.943c-1.336-5.384-6.79-8.658-12.174-7.322a10.059 10.059 0 0 0-4.671 2.642l-62.527 62.487-49.61-16.533-16.543-49.6 62.527-62.537c3.917-3.927 3.917-10.286-.01-14.203a10.086 10.086 0 0 0-4.701-2.652c-64.335-16.292-129.695 22.65-145.987 86.986a120.26 120.26 0 0 0-3.676 29.862c.02 7.905.844 15.79 2.441 23.534L144.079 364.064a118.754 118.754 0 0 0-23.534-2.441C53.98 361.623.011 415.592.011 482.157S53.98 602.691 120.545 602.691s120.534-53.969 120.534-120.534c-.02-7.905-.844-15.79-2.441-23.534l52.663-52.663 23.032 23.032c3.917 3.917 10.286 3.917 14.203 0l5.022-5.022c4.41-4.379 11.521-4.379 15.931 0 4.399 4.389 4.41 11.511.02 15.911l-.02.02-5.022 5.022c-3.917 3.917-3.917 10.286 0 14.203l119.821 119.821c31.52 31.801 82.847 32.032 114.648.522 31.801-31.52 32.032-82.847.522-114.648l-.522-.522-119.821-119.822c-3.917-3.917-10.286-3.917-14.203 0l-5.022 5.022c-4.41 4.379-11.521 4.379-15.931 0-4.4-4.389-4.41-11.511-.02-15.911l.02-.02 5.022-5.022c3.917-3.917 3.917-10.286 0-14.203l-23.032-23.032 52.663-52.663a118.771 118.771 0 0 0 23.535 2.44zm39.465 341.514a60.864 60.864 0 0 1-21.365-3.897l78.448-78.448c11.842 31.49-4.088 66.615-35.578 78.448a60.986 60.986 0 0 1-21.505 3.897zM407.818 321.545c-11.119 13.269-9.382 33.046 3.887 44.166 11.662 9.773 28.657 9.763 40.309-.03l112.72 112.82c1.225 1.225 2.37 2.521 3.475 3.837l-85.881 85.881c-1.316-1.105-2.612-2.25-3.837-3.475l-112.81-112.82c11.119-13.269 9.382-33.047-3.887-44.166-11.662-9.773-28.657-9.763-40.309.03l-16.071-16.071 86.333-86.202 16.071 16.03zm40.559-101.028-227.86 227.82a10.04 10.04 0 0 0-2.652 9.542c13.781 54.12-18.924 109.164-73.044 122.945C90.701 594.595 35.657 561.9 21.876 507.78S40.8 398.616 94.92 384.835a101.136 101.136 0 0 1 49.901 0 10.146 10.146 0 0 0 9.542-2.652l227.81-227.82a10.063 10.063 0 0 0 2.642-9.542c-13.691-53.487 18.572-107.939 72.059-121.619a99.943 99.943 0 0 1 30.977-2.933l-52.985 53.005a10.036 10.036 0 0 0-2.431 10.276l20.089 60.267a10.025 10.025 0 0 0 6.358 6.348l60.267 20.089a10.032 10.032 0 0 0 10.276-2.421l52.985-52.985c.121 1.919.181 3.817.181 5.705.281 55.195-44.226 100.164-99.421 100.445a99.93 99.93 0 0 1-25.302-3.124 10.06 10.06 0 0 0-9.542 2.642.885.885 0 0 0 .051.001z"/><path d="m404.713 418.952 14.204-14.205L519.36 505.19l-14.205 14.205z"/></svg>